# xmcd
#
# Track frame offsets:
#	150
#	13042
#	30523
#	52640
#	66172
#	80098
#	98572
#	111303
#	127498
#	139190
#	159091
#	172920
#	190118
#
# Disc length: 2726 seconds
#
# Revision: 0
# Processed by: cddbd v1.5.2PL0 Copyright (c) Steve Scherf et al.
# Submitted via: dBpowerAMP V4.0
#
DISCID=a30aa40d
DTITLE=Kendel Carson - Rearview Mirror Tears
DYEAR=2007
DGENRE=Country
TTITLE0=Run to the middle of the mornin'
TTITLE1=I like trucks
TTITLE2=Take me down to the river
TTITLE3=Ribbons and bows
TTITLE4=I certainly know why
TTITLE5=Gold in the hills
TTITLE6=In the middle of a think about you
TTITLE7=Especially for a girl
TTITLE8=Child all over again
TTITLE9=Ain't that the sun
TTITLE10=Just what happened to the moon
TTITLE11=There's no Angel on my shoulder
TTITLE12=Who wants to ride this train
EXTD=
EXTT0=
EXTT1=
EXTT2=
EXTT3=
EXTT4=
EXTT5=
EXTT6=
EXTT7=
EXTT8=
EXTT9=
EXTT10=
EXTT11=
EXTT12=
PLAYORDER=
